<svg width="48" height="40" viewBox="0 0 48 40" fill="none" xmlns="http://www.w3.org/2000/svg">
<g transform="translate(5.481 0.000) scale(0.74074)" stroke-width="2.160">
<path id="Vector" d="M13.751 16.0083H24.8742M13.751 24.4824H20.2621M13.751 32.683H17.5491M5.34076 16.0083L7.23984 17.9218L11.038 14.0949M5.34076 23.9357L7.23984 26.3959L11.038 22.0222M5.34076 32.1363L7.23984 34.3232L11.038 29.9495M8.59633 6.16745H1V41.1569H20.2621M8.59633 6.16745V3.9806H12.1232C12.1232 0.426869 17.8204 -0.392995 18.0917 3.9806H21.6186V6.16745M8.59633 6.16745V8.62765H21.6186V6.16745M21.6186 6.16745H29.2149V20.6553M35.5293 42.2697L37.4967 44.2343M37.8902 39.9121L39.8576 41.8767M36.7086 33.3073C36.7086 36.8879 33.8018 39.7905 30.2161 39.7905C26.6304 39.7905 23.7237 36.8879 23.7237 33.3073C23.7237 29.7267 26.6304 26.8241 30.2161 26.8241C33.8018 26.8241 36.7086 29.7267 36.7086 33.3073ZM39.9548 33.3074C39.9548 38.6782 35.5947 43.0322 30.2161 43.0322C24.8376 43.0322 20.4774 38.6782 20.4774 33.3074C20.4774 27.9365 24.8376 23.5826 30.2161 23.5826C35.5947 23.5826 39.9548 27.9365 39.9548 33.3074ZM37.7907 45.4707L41.1953 41.9516L49 49.4808L45.5954 52.9999L37.7907 45.4707Z" stroke="#527B8D" stroke-linecap="round" stroke-linejoin="round"/>
</g>
</svg>
