<svg width="232" height="175" viewBox="0 0 232 175" fill="none" xmlns="http://www.w3.org/2000/svg">
<path id="Vector 107" d="M13.517 157.639H1V174H50.0724V157.639M13.517 157.639H50.0724M13.517 157.639V118.088M50.0724 157.639H79.5158M13.517 118.088L23.1892 114.247L31.0124 125.059H47.7965V140.709L79.5158 133.738M76.9555 46.9531H27.4564L1 69.0049V118.088H13.517M27.4564 46.9531L31.0124 56.4852L27.4564 63.4564L41.8225 69.0049L58.7489 82.9474L53.4861 86.7887L65.7186 95.4671M13.517 86.7887L27.4564 92.4794M34.4261 108.983L44.3828 106.422M114.222 157.639H181.928M181.928 157.639V174H231V157.639H217.914M181.928 157.639H217.914M217.914 157.639V140.709H174.105V129.754M174.105 129.754H186.195V120.222M174.105 129.754H117.209V60.7533H186.195M117.209 46.9531H186.195V60.7533M186.195 60.7533V69.0049M186.195 69.0049H196.294L196.1 75.9762M186.195 69.0049V120.222M196.1 75.9762L195.037 114.247L194.871 120.222H186.195M196.1 75.9762H209.664V82.9474M195.037 114.247H209.664V106.422M209.664 82.9474H217.914V89.4918M209.664 82.9474V106.422M209.664 106.422H217.914V100.304M217.914 89.4918H231V100.304H217.914M217.914 89.4918V100.304M135.131 75.9762V100.304H174.105V75.9762H135.131ZM85.632 46.9531C68.2551 31.3404 68.7056 9.53619 91.1793 1.00001L88.7613 26.0395L99.0025 34.2911L109.101 26.0395L107.252 1.00001C124.179 11.8125 133.165 31.122 107.252 46.9531V140.709C119.343 168.878 74.5374 167.882 85.632 140.709V46.9531ZM140.109 108.698C140.109 109.955 139.091 110.975 137.834 110.975C136.577 110.975 135.558 109.955 135.558 108.698C135.558 107.441 136.577 106.422 137.834 106.422C139.091 106.422 140.109 107.441 140.109 108.698ZM153.907 108.698C153.907 109.955 152.888 110.975 151.631 110.975C150.374 110.975 149.355 109.955 149.355 108.698C149.355 107.441 150.374 106.422 151.631 106.422C152.888 106.422 153.907 107.441 153.907 108.698ZM167.846 108.698C167.846 109.955 166.827 110.975 165.57 110.975C164.313 110.975 163.294 109.955 163.294 108.698C163.294 107.441 164.313 106.422 165.57 106.422C166.827 106.422 167.846 107.441 167.846 108.698ZM102.558 148.747C102.558 151.929 100.011 154.509 96.8689 154.509C93.7266 154.509 91.1793 151.929 91.1793 148.747C91.1793 145.565 93.7266 142.985 96.8689 142.985C100.011 142.985 102.558 145.565 102.558 148.747Z" stroke="#527B8D" stroke-width="2" stroke-linecap="round" stroke-linejoin="round"/>
</svg>
