<svg width="48" height="40" viewBox="0 0 48 40" fill="none" xmlns="http://www.w3.org/2000/svg">
<g transform="translate(-44.116 -5.108) scale(0.59077)" stroke-width="2.708">
<g id="Frame 290">
<path id="Vector" d="M103.564 29.2263H117.764M103.564 40.0819H111.876M103.564 50.5872H108.413M92.8273 29.2263L95.2517 31.6776L100.101 26.7751M92.8273 39.3815L95.2517 42.5331L100.101 36.9303M92.8273 49.8869L95.2517 52.6883L100.101 47.0854M96.9834 16.6198H87.2858V61.4426H113.608M96.9834 16.6198V13.8183H101.486C101.486 9.26587 108.759 8.21559 109.105 13.8183H113.608V16.6198M96.9834 16.6198V19.7714H113.608V16.6198M113.608 16.6198H123.306V35.1792M130.328 61.1985L132.009 63.7559M133.439 59.2786L135.12 61.836M133.683 52.0028C132.852 55.7913 129.022 58.1552 125.128 57.2826C121.234 56.4101 118.75 52.6316 119.581 48.8432C120.411 45.0547 124.241 42.6908 128.136 43.5633C132.03 44.4358 134.513 48.2143 133.683 52.0028ZM137.211 52.793C135.965 58.4757 130.22 62.0215 124.379 60.7128C118.537 59.404 114.812 53.7363 116.058 48.0536C117.304 42.3708 123.049 38.825 128.89 40.1338C134.731 41.4426 138.456 47.1103 137.211 52.793ZM132.042 65.1346L136.556 62.2398L143.286 72.1051L138.772 75L132.042 65.1346Z" stroke="#527B8D" stroke-linecap="round" stroke-linejoin="round"/>
</g>
</g>
</svg>
