<svg width="208" height="153" viewBox="0 0 208 153" fill="none" xmlns="http://www.w3.org/2000/svg">
<path d="M32.1395 44.2573L1 56.2732L21.3605 68.6897M21.3605 68.6897L1 91.1194L21.3605 98.5347M21.3605 68.6897L78.0504 91.1194M21.3605 68.6897L40.124 62.2812M78.0504 91.1194L59.2868 112.347L21.3605 98.5347M78.0504 91.1194H130.748M78.0504 91.1194V152M130.748 91.1194L149.512 112.347L187.837 98.1954M130.748 91.1194L187.837 68.6897M130.748 91.1194V152M187.837 68.6897L207 91.1194L187.837 98.1954M187.837 68.6897L207 52.6684L174.663 41.8541M187.837 68.6897L165.081 60.679M165.081 60.679V74.6976H40.124V59.878M165.081 60.679H168.674V25.0318H164.283M86.4341 60.262L128.752 60.6128L136.736 60.679H165.081M187.837 98.1954V131.573L130.748 152H78.0504L21.3605 131.573V98.5347M86.4341 60.262L70.8643 60.1329L40.124 59.878H37.7287V9.81167H44.1163V1H80.4457V8.20955H84.438V14.2175M164.283 25.0318V8.20955H136.736V12.2149M164.283 25.0318H137.535M136.736 60.679V44.2573M84.438 14.2175H87.6318V17.8223M84.438 14.2175H78.0504V34.6446H82.8411M87.6318 17.8223H99.6085V29.0371H87.6318M87.6318 17.8223H84.438V29.0371H87.6318M87.6318 29.0371V34.6446H82.8411M82.8411 34.6446V41.8541L86.4341 46.2599H130.748L136.736 44.2573M136.736 44.2573V31.4403M136.736 12.2149H128.752V17.0212M136.736 12.2149V31.4403M136.736 31.4403H128.752V27.0345M128.752 17.0212H113.581V27.0345H128.752M128.752 17.0212V27.0345M128.752 60.6128V52.6684H93.6202L86.4341 60.262M70.8643 8.20955V60.1329M149.512 31.4403H143.922V41.8541H160.69V32.2414H155.101M104.399 105.538L92.0233 121.96H99.6085V137.581H109.589V121.96H117.574L104.399 105.538ZM59.2868 19.8249C57.082 20.0461 55.5895 22.0101 55.6938 24.2308C55.7925 26.3328 57.1998 28.0256 59.2868 28.2361C61.5929 28.4686 63.5681 26.5534 63.6783 24.2308C63.7937 21.8002 61.7001 19.5828 59.2868 19.8249ZM146.318 48.2626C144.886 48.1353 143.533 49.6781 143.922 51.0663C144.227 52.1521 145.198 52.7661 146.318 52.6684C147.312 52.5817 148.042 52.03 148.314 51.0663C148.679 49.7716 147.654 48.3814 146.318 48.2626ZM157.496 48.2626C156.063 48.3732 154.861 49.6444 155.101 51.0663C155.304 52.2709 156.282 52.9781 157.496 53.069C158.834 53.1691 160.07 52.3936 160.291 51.0663C160.544 49.5389 159.035 48.1438 157.496 48.2626Z" stroke="#527B8D" stroke-width="2" stroke-linecap="round" stroke-linejoin="round"/>
</svg>
