<svg width="555" height="314" viewBox="0 0 555 314" fill="none" xmlns="http://www.w3.org/2000/svg">
<path id="Vector 102" d="M440.92 285.174V311.5H552.5V285.174H540.98M440.92 285.174H117.042M440.92 285.174H540.98M117.042 285.174V311.5H2.5V285.174H16.6532M117.042 285.174H16.6532M16.6532 285.174V213.436M16.6532 213.436H2.5V120.308L53.1882 71.2761H197.353V92.0078M16.6532 213.436H80.178M197.353 92.0078H146.994L117.042 124.586V227.586H225.66M197.353 92.0078H225.66V108.132M225.66 227.586V209.816M225.66 227.586H450.136M25.211 147.292H96.9644M225.66 108.132H250.016V120.308M225.66 108.132V209.816M225.66 209.816H250.016V196.982M250.016 120.308H284.577V138.736M250.016 120.308V196.982M250.016 196.982H284.577V179.87M284.577 138.736H300.376V149.925M284.577 138.736V179.87M284.577 179.87H300.376V172.302M300.376 149.925H320.453V172.302H300.376M300.376 149.925V172.302M540.98 285.174V227.586H513.661M513.661 227.586V176.58H529.131V142.356H470.214M513.661 227.586H450.136M450.136 227.586L467.91 176.58H435.654V170.327M435.654 149.925V142.356H455.732M435.654 149.925H424.792L406.689 160.126L424.792 170.327H435.654M435.654 149.925V170.327M455.732 80.8193H450.136V71.2761M455.732 80.8193V142.356M455.732 80.8193H470.214M455.732 142.356H470.214M470.214 80.8193H475.809V72.5924M470.214 80.8193V142.356M455.732 47.2538H450.136V56.7969M455.732 47.2538V19.9406H470.214V47.2538M455.732 47.2538H470.214M470.214 47.2538H475.809V56.7969M475.809 56.7969H513.661V72.5924H475.809M475.809 56.7969V72.5924M450.136 56.7969H416.251M450.136 56.7969V71.2761M450.136 71.2761H414.374M416.272 58.1742H403.398M371.471 12.8226C373.154 12.8226 374.815 12.9165 376.45 13.0995C398.849 15.6066 416.272 34.8308 416.272 58.1742M416.272 58.1742C416.272 80.3758 400.512 98.8511 379.699 102.762M371.471 103.526V90.0336M326.669 58.1742C326.669 80.6093 342.762 99.2393 363.9 102.881C366.361 103.305 368.89 103.526 371.471 103.526M371.471 103.526C374.282 103.526 377.032 103.264 379.699 102.762M326.669 58.1742H339.873M371.471 12.8226C369.788 12.8226 368.127 12.9165 366.492 13.0995C344.092 15.6066 326.669 34.8308 326.669 58.1742M371.471 12.8226V25.5352M374.443 53.5064C373.614 52.8805 372.585 52.5101 371.471 52.5101C368.721 52.5101 366.492 54.7666 366.492 57.5501C366.492 58.8895 367.008 60.107 367.85 61.0096M374.443 53.5064C375.661 54.4252 376.449 55.8944 376.449 57.5501C376.449 60.3336 374.22 62.59 371.471 62.59C370.044 62.59 368.758 61.9827 367.85 61.0096M374.443 53.5064L394.84 33.1139M367.85 61.0096L360.28 71.2761M366.492 13.0995V2.5H376.449L376.45 13.0995M363.9 102.881V127.877H366.492M379.699 102.762V127.877H376.449M366.492 127.877L371.471 148.609L376.449 127.877M366.492 127.877H376.449M330.986 160.126H341.189M349.089 160.126H359.292M367.85 160.126H377.395M385.624 160.126H396.486M138.107 132.155V172.302H206.899V132.155H138.107ZM147.653 191.059C147.653 192.991 146.105 194.557 144.197 194.557C142.288 194.557 140.741 192.991 140.741 191.059C140.741 189.127 142.288 187.561 144.197 187.561C146.105 187.561 147.653 189.127 147.653 191.059ZM174.807 191.059C174.807 192.991 173.26 194.557 171.351 194.557C169.442 194.557 167.895 192.991 167.895 191.059C167.895 189.127 169.442 187.561 171.351 187.561C173.26 187.561 174.807 189.127 174.807 191.059ZM202.291 191.059C202.291 192.991 200.743 194.557 198.835 194.557C196.926 194.557 195.379 192.991 195.379 191.059C195.379 189.127 196.926 187.561 198.835 187.561C200.743 187.561 202.291 189.127 202.291 191.059Z" stroke="#527B8D" stroke-width="3" stroke-linecap="round" stroke-linejoin="round"/>
</svg>
